<?xml version="1.0" encoding="UTF-8"?>
<svg id="Camada_1" data-name="Camada 1" xmlns="http://www.w3.org/2000/svg" version="1.1" viewBox="0 0 1000 1000">
  <defs>
    <style>
      .cls-1 {
        fill: #000;
        stroke-width: 0px;
      }
    </style>
  </defs>
  <path class="cls-1" d="M832,984c15-129,0-178-5-219s-10-80-29-111c-15-22-30-33-43-29-26-44-86-74-121-89-5-4-6-5-20-18-6-10-16-17-33-16-5,0-5-5-8-8l-9-45c-2-6,0-15,3-24,5,1,51,29,77,24,50-10,93-68,60-114,16,4,64-53,62-82,1-25-15-127-41-141-24-10-56-1-66,13-6-31-25-47-50-57-28-17-45-26-73-31-6-21-98,1-137,28q-42,5-62,35c-5,8-6,21-2,36-5,18-4,38-2,58-5,13-15,26-18,42-1,6-4,17,3,27-2,3-5,5-7,6,1,1,4,2,7,1-2,5-2,11,0,15-17,23-21,47-13,76l16,74c2,2-3,13,2,30,5,18,39,19,69,22,2,13,11,40,9,61-23,0-52,45-52,47-34,24-52,38-72,70-19,5-37,23-52,61-9,23-14,47-17,70-12,24-20,50-21,78-17,37-27,72-34,107l679,3Z"/>
</svg>